<?xml version="1.0" standalone="no"?>
<!DOCTYPE svg PUBLIC "-//W3C//DTD SVG 20010904//EN"
 "http://www.w3.org/TR/2001/REC-SVG-20010904/DTD/svg10.dtd">
<svg version="1.0" xmlns="http://www.w3.org/2000/svg"
 width="1024.000000pt" height="1024.000000pt" viewBox="0 0 1024.000000 1024.000000"
 preserveAspectRatio="xMidYMid meet">
<metadata>
Created by potrace 1.14, written by Peter Selinger 2001-2017
</metadata>
<g transform="translate(0.000000,1024.000000) scale(0.100000,-0.100000)"
fill="#000000" stroke="none">
<path d="M4687 10023 c-3 -2 -31 -8 -63 -14 -94 -16 -108 -19 -124 -22 -8 -2
-41 -9 -72 -16 -34 -7 -58 -18 -58 -25 0 -7 -6 -13 -12 -14 -82 -9 -152 -27
-219 -56 -20 -8 -81 -23 -135 -32 -54 -9 -101 -19 -104 -23 -6 -7 -12 -9 -116
-32 -45 -10 -99 -25 -120 -34 -22 -9 -66 -21 -99 -26 -33 -6 -78 -18 -100 -29
-22 -10 -74 -27 -115 -36 -41 -10 -83 -24 -93 -33 -14 -12 -42 -16 -110 -16
l-92 0 -3 -28 c-3 -22 -7 -27 -21 -22 -26 8 -68 -11 -75 -33 -5 -15 -19 -21
-58 -25 -38 -5 -57 -13 -72 -31 -14 -16 -36 -27 -64 -31 -29 -5 -48 -14 -58
-30 -9 -14 -30 -26 -52 -30 -20 -4 -51 -20 -70 -36 -18 -16 -42 -29 -53 -29
-12 0 -34 -13 -49 -30 -15 -16 -37 -30 -47 -30 -11 0 -30 -11 -42 -24 -13 -13
-35 -27 -49 -31 -14 -3 -41 -20 -59 -36 -19 -16 -38 -29 -42 -29 -8 0 -69 -45
-113 -84 -9 -8 -29 -23 -44 -33 -16 -10 -38 -27 -49 -38 -12 -11 -37 -32 -56
-48 -227 -184 -422 -386 -689 -712 -53 -65 -74 -94 -141 -197 -17 -27 -34 -48
-38 -48 -4 0 -15 -17 -25 -37 -9 -20 -26 -48 -37 -62 -37 -48 -68 -96 -92
-141 -13 -25 -35 -63 -50 -84 -15 -21 -27 -43 -27 -49 0 -6 -11 -25 -25 -43
-14 -18 -25 -36 -25 -41 0 -7 -71 -150 -112 -228 -33 -60 -88 -184 -88 -197 0
-7 -14 -40 -30 -73 -16 -33 -30 -69 -30 -81 0 -12 -11 -42 -25 -68 -13 -25
-31 -76 -40 -111 -8 -36 -23 -82 -34 -103 -10 -21 -22 -60 -26 -87 -4 -28 -18
-77 -32 -110 -13 -33 -28 -91 -33 -128 -6 -38 -21 -108 -34 -155 -14 -48 -29
-132 -35 -187 -6 -56 -20 -148 -33 -205 -21 -100 -22 -127 -23 -590 0 -432 2
-495 18 -575 25 -121 35 -183 47 -290 6 -49 20 -119 31 -155 11 -36 24 -100
30 -142 5 -45 20 -97 34 -125 13 -26 29 -79 35 -116 6 -39 21 -84 34 -105 13
-21 26 -60 29 -89 4 -31 16 -67 31 -90 14 -21 30 -63 36 -93 6 -30 17 -60 25
-66 18 -13 35 -57 35 -89 0 -13 11 -37 25 -54 14 -16 32 -52 40 -79 8 -27 24
-61 35 -75 11 -14 27 -45 35 -68 9 -24 22 -50 30 -59 7 -8 22 -35 33 -60 11
-25 27 -51 36 -59 9 -7 16 -27 16 -43 0 -21 10 -38 35 -61 22 -19 35 -40 35
-55 0 -14 13 -36 30 -52 17 -16 37 -43 44 -62 8 -18 24 -42 35 -52 12 -11 21
-28 21 -38 0 -11 13 -31 29 -46 16 -15 36 -40 45 -57 9 -16 32 -50 51 -75 19
-25 44 -63 54 -85 10 -22 29 -44 41 -50 13 -5 28 -19 34 -30 11 -19 220 -268
280 -333 97 -105 288 -286 323 -305 8 -5 38 -31 66 -58 29 -28 72 -64 96 -82
24 -18 64 -51 88 -75 24 -23 51 -42 59 -42 8 0 22 -9 32 -21 9 -11 34 -29 54
-40 21 -11 38 -24 38 -29 0 -5 9 -12 21 -15 12 -4 38 -22 58 -39 20 -18 50
-38 68 -45 17 -7 39 -21 49 -32 9 -10 23 -19 31 -19 7 0 30 -15 50 -34 21 -18
50 -36 65 -40 15 -3 41 -19 57 -35 16 -16 45 -31 65 -35 19 -4 41 -15 48 -25
16 -22 51 -41 76 -41 11 0 36 -14 57 -30 21 -16 46 -30 57 -30 23 0 54 -16 80
-40 11 -10 36 -20 57 -23 21 -2 55 -16 77 -30 21 -14 55 -28 74 -32 19 -4 58
-20 86 -36 28 -16 65 -29 81 -29 17 0 54 -13 84 -29 30 -15 77 -31 104 -34 28
-3 75 -17 105 -31 30 -14 69 -26 86 -26 18 0 69 -12 115 -26 46 -14 125 -31
174 -39 141 -21 199 -32 256 -49 29 -9 87 -16 128 -16 42 0 114 -4 161 -9 141
-16 614 -22 755 -11 72 6 186 15 255 20 69 5 148 15 175 23 28 8 88 20 135 27
47 6 110 18 140 26 409 110 489 133 519 149 16 8 50 19 77 26 27 6 63 20 79
29 17 10 50 23 75 30 25 6 63 22 85 34 22 13 58 29 80 36 22 7 58 23 80 35 22
13 51 26 65 30 14 4 37 16 52 27 15 10 42 24 60 30 18 6 46 20 62 32 32 23 84
51 156 87 25 12 58 32 73 45 16 13 35 24 42 24 7 0 26 11 42 24 15 13 46 32
68 44 22 11 49 29 59 41 11 12 24 21 29 21 10 0 66 39 138 97 22 17 48 35 59
38 11 4 20 10 20 16 0 5 19 21 43 35 132 84 558 485 721 679 37 44 80 94 95
110 16 17 47 55 69 85 62 84 95 128 122 162 14 17 34 46 45 64 11 17 38 58 60
89 58 84 102 155 121 195 9 19 24 44 34 55 11 11 28 41 39 66 12 26 27 52 35
58 8 7 22 34 31 61 9 27 22 54 30 60 8 6 19 28 26 48 6 20 24 60 39 87 15 28
31 63 34 79 4 17 16 41 26 55 10 15 23 45 29 68 6 23 25 67 41 98 17 32 30 68
30 81 0 14 11 46 24 73 14 26 32 78 40 115 9 37 23 80 32 97 8 17 22 65 30
107 8 42 23 100 33 127 10 28 24 92 31 144 7 52 21 119 31 149 10 30 19 69 19
86 0 52 19 224 43 371 19 123 21 178 21 455 -1 281 -3 325 -21 405 -12 50 -24
122 -27 160 -11 118 -38 279 -51 305 -7 14 -20 79 -30 145 -11 77 -24 128 -36
143 -16 21 -43 141 -39 173 4 29 -1 39 -19 39 -24 0 -29 14 -46 118 -11 66
-19 88 -39 107 -19 18 -26 34 -26 62 0 54 -17 107 -40 128 -11 10 -22 34 -26
54 -10 61 -14 70 -37 73 -16 2 -23 11 -25 33 -8 94 -14 117 -43 146 -16 16
-29 40 -29 53 0 24 -32 61 -43 49 -15 -14 -6 -59 18 -94 34 -48 47 -167 21
-188 -14 -11 -18 -9 -33 19 -10 18 -28 45 -40 59 -12 15 -57 83 -101 152 -567
891 -868 1225 -1527 1690 -316 223 -779 473 -1055 570 -30 10 -64 23 -75 29
-34 16 -215 81 -269 97 -28 7 -94 27 -146 42 -117 35 -333 87 -420 102 -36 5
-119 21 -186 35 -67 14 -166 31 -220 39 -178 26 -310 55 -251 55 10 0 17 4 17
9 0 5 10 11 23 13 39 6 -302 19 -450 17 -78 -1 -144 -4 -146 -6z m-217 -1058
c159 -25 310 -64 420 -110 30 -13 66 -26 80 -30 36 -11 245 -120 312 -163 394
-253 679 -588 871 -1023 29 -67 102 -298 112 -354 3 -22 13 -59 21 -83 19 -57
47 -428 39 -517 -3 -38 -12 -106 -20 -150 -7 -44 -21 -132 -31 -195 -9 -63
-30 -154 -45 -203 -16 -48 -29 -94 -29 -102 0 -21 -63 -184 -105 -270 -18 -38
-36 -77 -39 -85 -3 -8 -24 -44 -45 -80 -22 -36 -52 -85 -66 -110 -14 -25 -39
-63 -56 -85 -16 -22 -47 -65 -69 -96 -46 -67 -340 -366 -426 -435 -207 -165
-397 -281 -674 -407 -165 -76 -444 -158 -655 -192 -55 -8 -125 -20 -156 -25
-74 -13 -494 -13 -578 0 -365 57 -540 109 -801 238 -146 72 -315 186 -404 271
-266 255 -361 375 -476 607 -27 55 -50 107 -50 115 0 8 -9 28 -20 44 -11 17
-25 48 -31 70 -5 22 -21 76 -34 120 -41 135 -58 272 -62 514 -4 194 -2 243 17
357 23 145 79 363 109 422 10 20 21 50 25 66 14 58 130 314 190 421 19 33 44
76 55 96 25 45 145 223 178 264 165 207 314 364 461 488 90 76 275 212 327
241 17 9 59 35 95 56 57 34 107 60 295 151 132 64 405 145 553 164 59 8 136
18 172 23 137 19 368 14 540 -13z"/>
<path d="M3584 8105 c-50 -8 -120 -21 -155 -30 -91 -22 -269 -85 -299 -105
-14 -9 -34 -20 -44 -24 -89 -32 -355 -272 -405 -366 -54 -100 -61 -119 -81
-218 -22 -109 -19 -165 15 -279 17 -59 91 -155 135 -178 34 -18 52 -47 44 -70
-4 -9 -27 -27 -53 -41 -92 -49 -178 -122 -249 -209 -53 -66 -132 -185 -132
-201 0 -4 -12 -31 -26 -61 -29 -62 -54 -210 -54 -322 0 -211 76 -379 246 -542
229 -219 582 -331 992 -316 175 6 372 31 462 57 36 10 99 28 142 39 42 11 91
29 110 40 18 10 44 22 58 26 41 12 181 100 242 152 157 134 253 297 282 482
33 204 13 381 -55 506 -68 125 -243 284 -366 334 -63 26 -54 55 30 101 168 91
283 234 347 430 33 98 33 99 22 209 -13 145 -47 216 -147 317 -139 139 -366
237 -628 273 -104 14 -320 12 -433 -4z m311 -359 c118 -28 241 -128 265 -214
24 -87 5 -204 -47 -282 -65 -99 -170 -172 -318 -223 -85 -29 -98 -31 -250 -31
-158 -1 -161 0 -240 32 -94 38 -143 81 -185 158 -73 137 -9 324 151 447 152
116 413 163 624 113z m-200 -1170 c164 -37 281 -118 352 -244 l38 -67 0 -120
c-1 -116 -2 -122 -34 -185 -63 -122 -160 -214 -291 -277 -115 -56 -228 -71
-392 -53 -213 23 -374 135 -436 303 -32 86 -30 217 3 316 53 155 203 282 388
327 71 17 297 17 372 0z"/>
<path d="M3220 9668 c0 -4 7 -8 15 -8 8 0 15 4 15 8 0 5 -7 9 -15 9 -8 0 -15
-4 -15 -9z"/>
<path d="M9270 7823 c0 -5 4 -15 10 -23 11 -18 25 -7 17 15 -6 15 -27 21 -27
8z"/>
<path d="M9350 7689 c0 -11 4 -18 10 -14 5 3 7 12 3 20 -7 21 -13 19 -13 -6z"/>
<path d="M9410 7576 c0 -8 5 -18 10 -21 6 -3 10 3 10 14 0 12 -4 21 -10 21 -5
0 -10 -6 -10 -14z"/>
<path d="M9454 7515 c-7 -18 12 -69 32 -86 12 -9 14 -4 14 34 0 36 -4 49 -20
57 -16 9 -22 8 -26 -5z"/>
</g>
</svg>
